<svg id="图层_1" data-name="图层 1" xmlns="http://www.w3.org/2000/svg" xmlns:xlink="http://www.w3.org/1999/xlink" viewBox="0 0 249.45 298.33"><defs><style>.cls-1{opacity:0.75;fill:url(#未命名的渐变_22);}.cls-2{fill:url(#未命名的渐变_35);}.cls-3{fill:url(#未命名的渐变_67);}.cls-4{opacity:0.15;}.cls-5{fill:#497cbf;}.cls-10,.cls-26,.cls-6{fill:#77afde;}.cls-7{opacity:0.5;}.cls-8{opacity:0.8;}.cls-9{opacity:0.25;}.cls-10{opacity:0.7;}.cls-11,.cls-12{fill:#4aa0d7;}.cls-11{opacity:0.4;}.cls-12,.cls-24{opacity:0.6;}.cls-13{fill:url(#未命名的渐变_32);}.cls-14{fill:url(#未命名的渐变_10);}.cls-15{fill:url(#未命名的渐变_12);}.cls-16{fill:url(#未命名的渐变_22-2);}.cls-17{fill:#eff4fb;}.cls-18{fill:url(#未命名的渐变_25);}.cls-19{fill:url(#未命名的渐变_26);}.cls-20{opacity:0.3;}.cls-21,.cls-22,.cls-23{fill:none;stroke:#3076b7;stroke-miterlimit:10;}.cls-22{stroke-dasharray:9.76 3.9;}.cls-23{stroke-dasharray:9.76 3.9 9.76 3.9;}.cls-24{fill:#6ea9dc;}.cls-25{fill:#80aed2;}.cls-26{opacity:0.85;}</style><linearGradient id="未命名的渐变_22" x1="31.19" y1="51.4" x2="68.57" y2="51.4" gradientUnits="userSpaceOnUse"><stop offset="0" stop-color="#d6e6f5"/><stop offset="1" stop-color="#bdd7ec"/></linearGradient><linearGradient id="未命名的渐变_35" x1="123.78" y1="319.87" x2="123.78" y2="80.53" gradientUnits="userSpaceOnUse"><stop offset="0" stop-color="#fff" stop-opacity="0"/><stop offset="0.17" stop-color="#fcfdfe" stop-opacity="0.02"/><stop offset="0.31" stop-color="#f3f7fc" stop-opacity="0.07"/><stop offset="0.44" stop-color="#e4eef7" stop-opacity="0.15"/><stop offset="0.57" stop-color="#d0e0f1" stop-opacity="0.28"/><stop offset="0.69" stop-color="#b5cfe9" stop-opacity="0.43"/><stop offset="0.81" stop-color="#94bae0" stop-opacity="0.62"/><stop offset="0.93" stop-color="#6da1d5" stop-opacity="0.85"/><stop offset="1" stop-color="#5390cd"/></linearGradient><linearGradient id="未命名的渐变_67" x1="123.78" y1="319.87" x2="123.78" y2="80.53" gradientUnits="userSpaceOnUse"><stop offset="0" stop-color="#fff" stop-opacity="0"/><stop offset="0.36" stop-color="#fefeff" stop-opacity="0.01"/><stop offset="0.5" stop-color="#f8fafd" stop-opacity="0.04"/><stop offset="0.61" stop-color="#f0f4fa" stop-opacity="0.1"/><stop offset="0.69" stop-color="#e3ebf6" stop-opacity="0.19"/><stop offset="0.76" stop-color="#d2dff0" stop-opacity="0.3"/><stop offset="0.83" stop-color="#bed1ea" stop-opacity="0.43"/><stop offset="0.89" stop-color="#a5c0e2" stop-opacity="0.59"/><stop offset="0.94" stop-color="#8aacd9" stop-opacity="0.78"/><stop offset="0.99" stop-color="#6b96cf" stop-opacity="0.98"/><stop offset="1" stop-color="#6894ce"/></linearGradient><linearGradient id="未命名的渐变_32" x1="123.35" y1="139.32" x2="156.61" y2="81.72" gradientUnits="userSpaceOnUse"><stop offset="0" stop-color="#86a9c8" stop-opacity="0.7"/><stop offset="0.16" stop-color="#8aacca" stop-opacity="0.67"/><stop offset="0.36" stop-color="#94b3d0" stop-opacity="0.6"/><stop offset="0.57" stop-color="#a5c0d9" stop-opacity="0.47"/><stop offset="0.8" stop-color="#bcd2e6" stop-opacity="0.3"/><stop offset="1" stop-color="#d6e6f5" stop-opacity="0.1"/></linearGradient><linearGradient id="未命名的渐变_10" x1="78.93" y1="113.67" x2="112.93" y2="54.79" gradientUnits="userSpaceOnUse"><stop offset="0" stop-color="#96b6d4"/><stop offset="1" stop-color="#d6e6f5"/></linearGradient><linearGradient id="未命名的渐变_12" x1="124.99" y1="125.35" x2="172.2" y2="43.59" gradientUnits="userSpaceOnUse"><stop offset="0" stop-color="#86a9c8"/><stop offset="1" stop-color="#d6e6f5"/></linearGradient><linearGradient id="未命名的渐变_22-2" x1="145.88" y1="84.26" x2="170.07" y2="42.36" xlink:href="#未命名的渐变_22"/><linearGradient id="未命名的渐变_25" x1="88.89" y1="57.89" x2="106.79" y2="26.88" gradientUnits="userSpaceOnUse"><stop offset="0" stop-color="#9ab6d5"/><stop offset="1" stop-color="#d6e6f5"/></linearGradient><linearGradient id="未命名的渐变_26" x1="130.13" y1="66.82" x2="150.71" y2="31.18" gradientUnits="userSpaceOnUse"><stop offset="0" stop-color="#9ab6d5"/><stop offset="0.21" stop-color="#b0c8e1"/><stop offset="0.48" stop-color="#c5d8ec"/><stop offset="0.75" stop-color="#d2e3f3"/><stop offset="1" stop-color="#d6e6f5"/></linearGradient></defs><title>暂无数据</title><path class="cls-1" d="M40.29,50.29S35.4,48.8,33.92,53.9c0,0-4.26,1.28-2.13,4.89H68.57s-1.06-10-11.06-8.7c0,0-2.44-7-9.88-6S40.29,50.29,40.29,50.29Z"/><circle class="cls-2" cx="123.78" cy="200.2" r="119.67"/><circle class="cls-3" cx="123.78" cy="200.2" r="119.67"/><g class="cls-4"><path class="cls-5" d="M133.94,161.13c-.73-3.06,2.59-6.48,7.41-7.63a11.64,11.64,0,0,1,8.8,1.51c-1.51-2.72-6-4.53-10.23-3.52-4.83,1.15-8,4.95-7.21,8.48a5.61,5.61,0,0,0,2.94,3.57A4.18,4.18,0,0,1,133.94,161.13Z"/><ellipse class="cls-6" cx="142.42" cy="158.88" rx="8.98" ry="5.63" transform="translate(-33.02 37.45) rotate(-13.44)"/></g><g class="cls-7"><path class="cls-5" d="M183.57,129.71c2.14-3.47,8.62-3.35,14.46.27a16.69,16.69,0,0,1,7.27,9.86c1.06-3.91-1.69-9.89-6.8-13.06-5.84-3.61-12.58-3.3-15.05.69a7.07,7.07,0,0,0-.45,6.06A5.17,5.17,0,0,1,183.57,129.71Z"/><ellipse class="cls-6" cx="194.05" cy="135.86" rx="7.29" ry="12.43" transform="translate(-23.63 229.3) rotate(-58.23)"/></g><g class="cls-8"><path class="cls-5" d="M97.13,97.71c-.14-2.75,5.79-5.27,13.24-5.63,5.1-.24,10.12,1,12.48,2.48-1.38-2.56-7.45-4.72-14-4.41-7.45.36-13.36,3.22-13.21,6.39.06,1.38,1.27,2.58,3.22,3.48A3.08,3.08,0,0,1,97.13,97.71Z"/><ellipse class="cls-6" cx="110.29" cy="96.88" rx="13.5" ry="4.92" transform="translate(-4.53 5.42) rotate(-2.76)"/></g><g class="cls-9"><path class="cls-5" d="M36,155.58c-1.84-1.89.2-6.87,4.56-11.14,3-2.91,6.91-4.69,9.28-4.95-2.49-1.07-7.61.65-11.43,4.38-4.36,4.26-6.18,9.48-4.05,11.65.92.94,2.43,1.16,4.21.75A3.05,3.05,0,0,1,36,155.58Z"/><ellipse class="cls-6" cx="43.63" cy="147.9" rx="11.04" ry="4.71" transform="translate(-90.93 72.59) rotate(-44.33)"/></g><path class="cls-10" d="M45.73,109.64,35,121.35s-2.78-2.56.84-7.87C38.42,109.7,43.56,106.84,45.73,109.64Z"/><path class="cls-11" d="M81.92,15.47s1.09,6.81-5.2,9.07c0,0,6.55-.55,6.42,11,0,0-.3-11.55,3.64-12.65C86.78,22.89,82.47,25.09,81.92,15.47Z"/><path class="cls-12" d="M195.16,38.05s-2.53,6-10,3.39c0,0,6.4,3.81,1.76,11,0,0,4.64-7.15,9.15-5.29C196.06,47.11,190.59,45.83,195.16,38.05Z"/><path class="cls-11" d="M64.06,15s.64,3.11-3.05,4.14c0,0,3.84-.25,3.76,5,0,0-.17-5.27,2.14-5.77C66.91,18.34,64.38,19.34,64.06,15Z"/><polygon class="cls-13" points="68.69 107.76 124.42 129.59 209.48 116.36 194.03 103.32 171.82 90.57 68.69 107.76"/><polygon class="cls-14" points="68.69 46.16 122.3 60.21 122.3 123.8 68.69 107.76 68.69 46.16"/><polygon class="cls-15" points="176.65 46.16 122.3 60.21 122.3 123.8 176.65 105.67 176.65 46.16"/><polygon class="cls-16" points="140.29 81.04 194.03 65.75 176.65 46.16 122.3 60.21 140.29 81.04"/><polygon class="cls-17" points="68.69 46.16 122.3 60.21 105.48 81.84 53.53 67.23 68.69 46.16"/><polygon class="cls-18" points="68.57 46.16 115.65 31.99 115.65 58.47 68.57 46.16"/><polygon class="cls-19" points="176.65 46.16 122.3 60.21 115.65 58.47 115.65 31.99 176.65 46.16"/><g class="cls-20"><path class="cls-21" d="M123.11,47.51c-.17-.26.63-2,2.23-4.41"/><path class="cls-22" d="M127.59,39.91a66.41,66.41,0,0,1,7.86-8.67"/><path class="cls-23" d="M136.91,29.94c6-5.09,13.44-9.23,21.51-8.87a8,8,0,0,1,7.69,4.24c2.85,4.92-4.18,10.25-9.09,3.19,0,0-5.7-11.09,21.7-17.61"/><path class="cls-21" d="M180.62,10.45c1.54-.33,3.18-.66,4.91-1"/></g><polygon class="cls-24" points="212.91 4.2 185.15 3.8 191.61 7.46 186.62 15.09 212.91 4.2"/><polygon class="cls-25" points="194.27 15.51 212.91 4.2 192.81 12.53 194.27 15.51"/><path class="cls-26" d="M209.66,117.75s.87.76.89.75l.92-1.1a7.41,7.41,0,0,0-.66-4.59l-4.54-6.14c-1-1-8.8-6.14-11-5.18l-2.69.63a3.37,3.37,0,0,0-.35.29C199.14,107.57,204.48,111.3,209.66,117.75Z"/></svg>